<svg xmlns="http://www.w3.org/2000/svg" width="1560" height="920" font-family="sans-serif"><rect width="100%" height="100%" fill="#fff"/><defs><marker id="a" markerWidth="10" markerHeight="8" refX="9" refY="4" orient="auto-start-reverse"><path d="M0,0 L10,4 L0,8 z" fill="context-stroke"/></marker></defs>
<rect x="220" y="90" width="1130" height="760" fill="#FFFFFF" stroke="#232F3E" stroke-width="1.5"/>
<rect x="220" y="90" width="26" height="26" fill="#232F3E"/>
<text x="233.0" y="106.66666666666667" font-size="11" fill="#FFFFFF" text-anchor="middle" font-weight="bold">IDC</text>
<text x="254" y="107.33333333333333" font-size="13" fill="#232F3E" text-anchor="start" font-weight="normal">이천 IDC · 베어메탈 Kubernetes (Private 대역)</text>
<rect x="250" y="140" width="320" height="680" fill="#FFFFFF" stroke="#8C4FFF" stroke-width="1.5"/>
<rect x="250" y="140" width="26" height="26" fill="#8C4FFF"/>
<text x="263.0" y="156.66666666666666" font-size="11" fill="#FFFFFF" text-anchor="middle" font-weight="bold">k8s</text>
<text x="284" y="157.33333333333334" font-size="13" fill="#232F3E" text-anchor="start" font-weight="normal">이천 dataops 클러스터</text>
<rect x="600" y="140" width="210" height="680" fill="#FFFFFF" stroke="#7AA116" stroke-width="1.5"/>
<rect x="600" y="140" width="26" height="26" fill="#7AA116"/>
<text x="613.0" y="156.66666666666666" font-size="11" fill="#FFFFFF" text-anchor="middle" font-weight="bold">⇄</text>
<text x="634" y="158.33333333333334" font-size="13" fill="#232F3E" text-anchor="start" font-weight="normal">Private 네트워크</text>
<text x="634" y="174.33333333333334" font-size="13" fill="#232F3E" text-anchor="start" font-weight="normal">(Cilium)</text>
<rect x="840" y="140" width="320" height="680" fill="#FFFFFF" stroke="#C72C48" stroke-width="1.5"/>
<rect x="840" y="140" width="26" height="26" fill="#C72C48"/>
<text x="853.0" y="156.66666666666666" font-size="11" fill="#FFFFFF" text-anchor="middle" font-weight="bold">S3</text>
<text x="874" y="157.33333333333334" font-size="13" fill="#232F3E" text-anchor="start" font-weight="normal">AIStor 클러스터 (베어메탈 k8s · 상용)</text>
<rect x="1190" y="140" width="140" height="680" fill="#FFFFFF" stroke="#7AA116" stroke-width="1.5"/>
<rect x="1190" y="140" width="26" height="26" fill="#7AA116"/>
<text x="1203.0" y="156.66666666666666" font-size="11" fill="#FFFFFF" text-anchor="middle" font-weight="bold">P</text>
<text x="1224" y="157.33333333333334" font-size="13" fill="#232F3E" text-anchor="start" font-weight="normal">Public 경로</text>
<polyline points="356.0,222.0 410.0,222.0 410.0,322.0 464.0,322.0" fill="none" stroke="#232F3E" stroke-width="1.5" marker-end="url(#a)"/>
<polyline points="356.0,420.0 430.0,420.0 430.0,342.0 464.0,342.0" fill="none" stroke="#232F3E" stroke-width="1.5" marker-end="url(#a)"/>
<polyline points="490.0,402.0 490.0,532.0" fill="none" stroke="#232F3E" stroke-width="1.5" marker-end="url(#a)"/>
<polyline points="570.0,260.0 679.0,260.0" fill="none" stroke="#232F3E" stroke-width="1.5" marker-end="url(#a)"/>
<polyline points="731.0,260.0 930.0,260.0" fill="none" stroke="#232F3E" stroke-width="1.5" marker-end="url(#a)"/>
<polyline points="570.0,600.0 679.0,600.0" fill="none" stroke="#232F3E" stroke-width="1.5" marker-end="url(#a)"/>
<polyline points="731.0,600.0 930.0,600.0" fill="none" stroke="#232F3E" stroke-width="1.5" marker-end="url(#a)"/>
<polyline points="960.0,340.0 960.0,568.0" fill="none" stroke="#232F3E" stroke-width="2.5" marker-end="url(#a)"/>
<polyline points="990.0,275.0 1100.0,275.0 1100.0,585.0 990.0,585.0" fill="none" stroke="#ED7100" stroke-width="1.5" stroke-dasharray="6 4" marker-end="url(#a)"/>
<polyline points="1234.0,245.0 992.0,245.0" fill="none" stroke="#232F3E" stroke-width="1.5" marker-end="url(#a)"/>
<polyline points="1234.0,615.0 992.0,615.0" fill="none" stroke="#232F3E" stroke-width="1.5" marker-end="url(#a)"/>
<polyline points="1464.0,430.0 1400.0,430.0 1400.0,245.0 1286.0,245.0" fill="none" stroke="#232F3E" stroke-width="1.5" marker-end="url(#a)"/>
<polyline points="1400.0,430.0 1400.0,615.0 1286.0,615.0" fill="none" stroke="#232F3E" stroke-width="1.5" marker-end="url(#a)"/>
<polyline points="136.0,230.0 304.0,230.0" fill="none" stroke="#232F3E" stroke-width="1.5" marker-end="url(#a)"/>
<polyline points="136.0,420.0 304.0,420.0" fill="none" stroke="#232F3E" stroke-width="1.5" marker-end="url(#a)"/>
<polyline points="136.0,700.0 250.0,700.0" fill="none" stroke="#232F3E" stroke-width="1.5" marker-end="url(#a)"/>
<polyline points="40.0,885.0 80.0,885.0" fill="none" stroke="#232F3E" stroke-width="1.5" marker-end="url(#a)"/>
<polyline points="320.0,885.0 360.0,885.0" fill="none" stroke="#ED7100" stroke-width="1.5" stroke-dasharray="6 4" marker-end="url(#a)"/>
<rect x="84.0" y="204.0" width="52" height="52" rx="8" fill="#ED7100"/>
<text x="110.0" y="233.66666666666666" font-size="11" fill="#FFFFFF" text-anchor="middle" font-weight="bold">RAW</text>
<rect x="84.0" y="394.0" width="52" height="52" rx="8" fill="#326CE5"/>
<text x="110.0" y="423.6666666666667" font-size="11" fill="#FFFFFF" text-anchor="middle" font-weight="bold">user</text>
<rect x="84.0" y="674.0" width="52" height="52" rx="8" fill="#326CE5"/>
<text x="110.0" y="703.6666666666666" font-size="11" fill="#FFFFFF" text-anchor="middle" font-weight="bold">user</text>
<rect x="304.0" y="204.0" width="52" height="52" rx="8" fill="#E25A1C"/>
<text x="330.0" y="233.66666666666666" font-size="11" fill="#FFFFFF" text-anchor="middle" font-weight="bold">Spark</text>
<rect x="304.0" y="394.0" width="52" height="52" rx="8" fill="#DD00A1"/>
<text x="330.0" y="423.6666666666667" font-size="11" fill="#FFFFFF" text-anchor="middle" font-weight="bold">Trino</text>
<rect x="464.0" y="304.0" width="52" height="52" rx="8" fill="#01A88D"/>
<text x="490.0" y="333.6666666666667" font-size="11" fill="#FFFFFF" text-anchor="middle" font-weight="bold">HMS</text>
<rect x="464.0" y="534.0" width="52" height="52" rx="8" fill="#C74634"/>
<text x="490.0" y="563.6666666666666" font-size="11" fill="#FFFFFF" text-anchor="middle" font-weight="bold">Oracle</text>
<rect x="679.0" y="234.0" width="52" height="52" rx="8" fill="#7AA116"/>
<text x="705.0" y="263.6666666666667" font-size="11" fill="#FFFFFF" text-anchor="middle" font-weight="bold">Mesh</text>
<rect x="679.0" y="574.0" width="52" height="52" rx="8" fill="#7AA116"/>
<text x="705.0" y="603.6666666666666" font-size="11" fill="#FFFFFF" text-anchor="middle" font-weight="bold">BGP</text>
<rect x="930.0" y="230.0" width="60" height="60" rx="8" fill="#C72C48"/>
<text x="960.0" y="263.6666666666667" font-size="11" fill="#FFFFFF" text-anchor="middle" font-weight="bold">S3</text>
<rect x="930.0" y="570.0" width="60" height="60" rx="8" fill="#8A1C2E"/>
<text x="960.0" y="603.6666666666666" font-size="11" fill="#FFFFFF" text-anchor="middle" font-weight="bold">S3</text>
<rect x="860" y="740" width="280" height="64" rx="6" fill="#FFF1F0" stroke="#DD344C"/>
<text x="1000.0" y="768.6666666666666" font-size="11" fill="#DD344C" text-anchor="middle" font-weight="normal">🚨 ① 은 Hot · Warm 동일 버전 필수 (현재 불일치)</text>
<text x="1000.0" y="782.6666666666666" font-size="11" fill="#DD344C" text-anchor="middle" font-weight="normal">⚠ ①·② 동시 적용 대상 · 순서 검증 필요</text>
<rect x="1234.0" y="219.0" width="52" height="52" rx="8" fill="#326CE5"/>
<text x="1260.0" y="248.66666666666666" font-size="11" fill="#FFFFFF" text-anchor="middle" font-weight="bold">ing</text>
<rect x="1234.0" y="589.0" width="52" height="52" rx="8" fill="#7AA116"/>
<text x="1260.0" y="618.6666666666666" font-size="11" fill="#FFFFFF" text-anchor="middle" font-weight="bold">VIP</text>
<rect x="1464.0" y="404.0" width="52" height="52" rx="8" fill="#326CE5"/>
<text x="1490.0" y="433.6666666666667" font-size="11" fill="#FFFFFF" text-anchor="middle" font-weight="bold">user</text>
<text x="44" y="38.333333333333336" font-size="22" fill="#000000" text-anchor="start" font-weight="bold">이천 Hot/Warm AIStor ↔ 이천 dataops 클러스터 연결 아키텍처</text>
<text x="44" y="62.0" font-size="12" fill="#5E6C84" text-anchor="start" font-weight="normal">AIStor(상용 S3)와 dataops는 같은 이천 베어메탈 k8s 환경 · Private=Cilium ClusterMesh+BGP · Public=Ingress 또는 L4 스위치 VIP</text>
<text x="110.0" y="274.5" font-size="12" fill="#232F3E" text-anchor="middle" font-weight="normal">RAW 원천</text>
<text x="110.0" y="289.5" font-size="12" fill="#232F3E" text-anchor="middle" font-weight="normal">(설비·로그·파일)</text>
<text x="110.0" y="464.5" font-size="12" fill="#232F3E" text-anchor="middle" font-weight="normal">데이터 엔지니어</text>
<text x="110.0" y="479.5" font-size="12" fill="#232F3E" text-anchor="middle" font-weight="normal">(Spark/Trino 사용자)</text>
<text x="110.0" y="744.5" font-size="12" fill="#232F3E" text-anchor="middle" font-weight="normal">플랫폼 관리자</text>
<text x="110.0" y="759.5" font-size="12" fill="#232F3E" text-anchor="middle" font-weight="normal">(k8s·AIStor admin)</text>
<text x="330.0" y="274.5" font-size="12" fill="#232F3E" text-anchor="middle" font-weight="normal">Spark on K8s</text>
<text x="330.0" y="289.5" font-size="12" fill="#232F3E" text-anchor="middle" font-weight="normal">(적재·ETL·유지보수)</text>
<text x="330.0" y="464.5" font-size="12" fill="#232F3E" text-anchor="middle" font-weight="normal">Trino</text>
<text x="330.0" y="479.5" font-size="12" fill="#232F3E" text-anchor="middle" font-weight="normal">(조회)</text>
<text x="490.0" y="374.5" font-size="12" fill="#232F3E" text-anchor="middle" font-weight="normal">Hive Metastore</text>
<text x="490.0" y="389.5" font-size="12" fill="#232F3E" text-anchor="middle" font-weight="normal">(Hot 카탈로그)</text>
<text x="490.0" y="604.5" font-size="12" fill="#232F3E" text-anchor="middle" font-weight="normal">HMS DB</text>
<text x="490.0" y="619.5" font-size="12" fill="#232F3E" text-anchor="middle" font-weight="normal">(Oracle)</text>
<rect x="385.0" y="450.5" width="90" height="19" fill="#FFFFFF"/>
<text x="430.0" y="463.6666666666667" font-size="11" fill="#232F3E" text-anchor="middle" font-weight="normal">Thrift :9083</text>
<rect x="465.0" y="460.5" width="50" height="19" fill="#FFFFFF"/>
<text x="490.0" y="473.6666666666667" font-size="11" fill="#232F3E" text-anchor="middle" font-weight="normal">JDBC</text>
<text x="705.0" y="304.5" font-size="12" fill="#232F3E" text-anchor="middle" font-weight="normal">Cilium ClusterMesh</text>
<text x="705.0" y="319.5" font-size="12" fill="#232F3E" text-anchor="middle" font-weight="normal">(global service)</text>
<text x="705.0" y="644.5" font-size="12" fill="#232F3E" text-anchor="middle" font-weight="normal">BGP 피어링 (ToR)</text>
<text x="705.0" y="659.5" font-size="12" fill="#232F3E" text-anchor="middle" font-weight="normal">LB-IP·PodCIDR 광고</text>
<rect x="745.0" y="250.5" width="110" height="19" fill="#FFFFFF"/>
<text x="800.0" y="263.6666666666667" font-size="11" fill="#232F3E" text-anchor="middle" font-weight="normal">S3 API · Private</text>
<rect x="745.0" y="590.5" width="110" height="19" fill="#FFFFFF"/>
<text x="800.0" y="603.6666666666666" font-size="11" fill="#232F3E" text-anchor="middle" font-weight="normal">S3 API · Private</text>
<text x="960.0" y="308.5" font-size="12" fill="#232F3E" text-anchor="middle" font-weight="normal">Hot 클러스터 · 2026-02-07</text>
<text x="960.0" y="323.5" font-size="12" fill="#232F3E" text-anchor="middle" font-weight="normal">(raw/ · iceberg/)</text>
<text x="960.0" y="648.5" font-size="12" fill="#232F3E" text-anchor="middle" font-weight="normal">Warm 클러스터 · 2026-06-06</text>
<text x="960.0" y="663.5" font-size="12" fill="#232F3E" text-anchor="middle" font-weight="normal">(replica · tier · 용인 버킷)</text>
<rect x="875.0" y="433.0" width="170" height="34" fill="#FFFFFF"/>
<text x="960.0" y="446.6666666666667" font-size="11" fill="#232F3E" text-anchor="middle" font-weight="normal">① Bucket Replication</text>
<text x="960.0" y="460.6666666666667" font-size="11" fill="#232F3E" text-anchor="middle" font-weight="normal">(비동기 · Versioning 필수)</text>
<rect x="1030.0" y="413.0" width="140" height="34" fill="#FFFFFF"/>
<text x="1100.0" y="426.6666666666667" font-size="11" fill="#ED7100" text-anchor="middle" font-weight="normal">② ILM Transition</text>
<text x="1100.0" y="440.6666666666667" font-size="11" fill="#ED7100" text-anchor="middle" font-weight="normal">(Remote Tier · Scanner)</text>
<text x="1260.0" y="289.5" font-size="12" fill="#232F3E" text-anchor="middle" font-weight="normal">Ingress</text>
<text x="1260.0" y="304.5" font-size="12" fill="#232F3E" text-anchor="middle" font-weight="normal">(L7 · 호스트)</text>
<text x="1260.0" y="659.5" font-size="12" fill="#232F3E" text-anchor="middle" font-weight="normal">L4 스위치 VIP</text>
<text x="1260.0" y="674.5" font-size="12" fill="#232F3E" text-anchor="middle" font-weight="normal">(스위치 LB)</text>
<rect x="1110.0" y="215.5" width="100" height="19" fill="#FFFFFF"/>
<text x="1160.0" y="228.66666666666666" font-size="11" fill="#232F3E" text-anchor="middle" font-weight="normal">S3 API · Public</text>
<rect x="1110.0" y="630.5" width="100" height="19" fill="#FFFFFF"/>
<text x="1160.0" y="643.6666666666666" font-size="11" fill="#232F3E" text-anchor="middle" font-weight="normal">S3 API · Public</text>
<text x="1490.0" y="475.0" font-size="12" fill="#232F3E" text-anchor="middle" font-weight="normal">외부 클라이언트</text>
<text x="1490.0" y="490.0" font-size="12" fill="#232F3E" text-anchor="middle" font-weight="normal">(용인 dataops ·</text>
<text x="1490.0" y="505.0" font-size="12" fill="#232F3E" text-anchor="middle" font-weight="normal">사무망 · 협력사)</text>
<rect x="1340.0" y="503.0" width="120" height="34" fill="#FFFFFF"/>
<text x="1400.0" y="516.6666666666666" font-size="11" fill="#232F3E" text-anchor="middle" font-weight="normal">Public 접근</text>
<text x="1400.0" y="530.6666666666666" font-size="11" fill="#232F3E" text-anchor="middle" font-weight="normal">(DNS→VIP/Ingress)</text>
<rect x="155.0" y="200.5" width="70" height="19" fill="#FFFFFF"/>
<text x="190.0" y="213.66666666666666" font-size="11" fill="#232F3E" text-anchor="middle" font-weight="normal">원천 적재</text>
<rect x="145.0" y="390.5" width="90" height="19" fill="#FFFFFF"/>
<text x="190.0" y="403.6666666666667" font-size="11" fill="#232F3E" text-anchor="middle" font-weight="normal">SQL · Job 제출</text>
<rect x="140.0" y="653.0" width="100" height="34" fill="#FFFFFF"/>
<text x="190.0" y="666.6666666666666" font-size="11" fill="#232F3E" text-anchor="middle" font-weight="normal">kubectl · GitOps</text>
<text x="190.0" y="680.6666666666666" font-size="11" fill="#232F3E" text-anchor="middle" font-weight="normal">mc admin</text>
<text x="88" y="888.6666666666666" font-size="11" fill="#5E6C84" text-anchor="start" font-weight="normal">데이터 경로(S3 API)</text>
<text x="368" y="888.6666666666666" font-size="11" fill="#5E6C84" text-anchor="start" font-weight="normal">ILM Transition(비동기)</text>
<text x="624" y="888.6666666666666" font-size="11" fill="#5E6C84" text-anchor="start" font-weight="normal">보라=k8s 클러스터 · 초록=네트워크 · 레드=AIStor 스토리지 · 빨강 박스=확인 필요</text>
</svg>