<svg xmlns="http://www.w3.org/2000/svg" width="1500" height="720" font-family="sans-serif"><rect width="100%" height="100%" fill="#fff"/><defs><marker id="a" markerWidth="10" markerHeight="8" refX="9" refY="4" orient="auto-start-reverse"><path d="M0,0 L10,4 L0,8 z" fill="context-stroke"/></marker></defs>
<rect x="40" y="100" width="360" height="440" fill="#FFFFFF" stroke="#C72C48" stroke-width="1.5"/>
<rect x="40" y="100" width="26" height="26" fill="#C72C48"/>
<text x="53.0" y="116.66666666666667" font-size="11" fill="#FFFFFF" text-anchor="middle" font-weight="bold">S3</text>
<text x="74" y="117.33333333333333" font-size="13" fill="#232F3E" text-anchor="start" font-weight="normal">Hot · 2026-02-07</text>
<rect x="520" y="100" width="520" height="440" fill="#FFFFFF" stroke="#8A1C2E" stroke-width="1.5"/>
<rect x="520" y="100" width="26" height="26" fill="#8A1C2E"/>
<text x="533.0" y="116.66666666666667" font-size="11" fill="#FFFFFF" text-anchor="middle" font-weight="bold">W</text>
<text x="554" y="117.33333333333333" font-size="13" fill="#232F3E" text-anchor="start" font-weight="normal">Warm · 2026-06-06</text>
<rect x="1080" y="100" width="380" height="440" fill="#FFFFFF" stroke="#DD344C" stroke-width="1.5"/>
<rect x="1080" y="100" width="26" height="26" fill="#DD344C"/>
<text x="1093.0" y="116.66666666666667" font-size="11" fill="#FFFFFF" text-anchor="middle" font-weight="bold">!</text>
<text x="1114" y="117.33333333333333" font-size="13" fill="#232F3E" text-anchor="start" font-weight="normal">제약</text>
<polyline points="205.0,280.0 205.0,320.0 130.0,320.0 130.0,372.0" fill="none" stroke="#5E6C84" stroke-width="1"/>
<polyline points="235.0,280.0 235.0,320.0 310.0,320.0 310.0,372.0" fill="none" stroke="#5E6C84" stroke-width="1"/>
<polyline points="640.0,406.0 640.0,290.0" fill="none" stroke="#7D8998" stroke-width="1.5" stroke-dasharray="6 4" marker-end="url(#a)"/>
<polyline points="130.0,426.0 130.0,480.0 460.0,480.0 460.0,220.0 606.0,220.0" fill="none" stroke="#ED7100" stroke-width="2.5" marker-end="url(#a)"/>
<polyline points="336.0,400.0 480.0,400.0 480.0,140.0 900.0,140.0 900.0,186.0" fill="none" stroke="#ED7100" stroke-width="2" stroke-dasharray="6 4" marker-end="url(#a)"/>
<polyline points="672.0,230.0 770.0,230.0 770.0,515.0 220.0,515.0 220.0,302.0" fill="none" stroke="#DD344C" stroke-width="1.5" stroke-dasharray="6 4" marker-end="url(#a)"/>
<path d="M185.0,187.6 L255.0,187.6 L243.8,245.0 L196.2,245.0 Z" fill="#C72C48" stroke="#C72C48"/>
<ellipse cx="220.0" cy="187.6" rx="35.0" ry="8.4" fill="#fff" stroke="#C72C48" stroke-width="2"/>
<rect x="207.4" y="206.5" width="11.200000000000001" height="9.8" fill="#fff"/>
<rect x="221.4" y="210.0" width="11.200000000000001" height="9.8" fill="#fff"/>
<rect x="214.4" y="222.6" width="11.200000000000001" height="9.8" fill="#fff"/>
<rect x="104.0" y="374.0" width="52" height="52" rx="8" fill="#ED7100"/>
<text x="130.0" y="403.6666666666667" font-size="11" fill="#FFFFFF" text-anchor="middle" font-weight="bold">REP</text>
<rect x="284.0" y="374.0" width="52" height="52" rx="8" fill="#ED7100"/>
<text x="310.0" y="403.6666666666667" font-size="11" fill="#FFFFFF" text-anchor="middle" font-weight="bold">ILM</text>
<path d="M608.0,199.52 L672.0,199.52 L661.76,252.0 L618.24,252.0 Z" fill="#ED7100" stroke="#ED7100"/>
<ellipse cx="640.0" cy="199.52" rx="32.0" ry="7.68" fill="#fff" stroke="#ED7100" stroke-width="2"/>
<rect x="868.0" y="188.0" width="64" height="64" rx="8" fill="#5A6B86"/>
<text x="900.0" y="223.66666666666666" font-size="11" fill="#FFFFFF" text-anchor="middle" font-weight="bold">Tier</text>
<rect x="616.0" y="406.0" width="48" height="48" rx="8" fill="#7D8998" stroke-dasharray="4 3"/>
<text x="640.0" y="433.6666666666667" font-size="11" fill="#FFFFFF" text-anchor="middle" font-weight="bold">ILM</text>
<rect x="40" y="570" width="1420" height="110" rx="6" fill="#F0F7E6" stroke="#7AA116"/>
<text x="750.0" y="613.3333333333334" font-size="13" fill="#232F3E" text-anchor="middle" font-weight="bold">권장 패턴</text>
<text x="750.0" y="629.3333333333334" font-size="13" fill="#232F3E" text-anchor="middle" font-weight="bold">P-A 복제 대상 ≠ Transition 대상 (최근=복제 · 오래된=Transition)   P-B 같은 객체면 복제 완료 후 Transition</text>
<text x="750.0" y="645.3333333333334" font-size="13" fill="#232F3E" text-anchor="middle" font-weight="bold">P-C replica 에 같은 Expiration   P-D Tiering 버킷 resync 는 승인 절차   P-E tier 는 복제 대상 제외</text>
<text x="44" y="38.333333333333336" font-size="22" fill="#000000" text-anchor="start" font-weight="bold">Replication + ILM — 같은 버킷에 그대로 쓰기 어려운 이유</text>
<text x="44" y="62.0" font-size="12" fill="#5E6C84" text-anchor="start" font-weight="normal">공개 문서에 병행 금지 문구는 없음 (MinIO 는 병행 권장) · 같은 객체에 두 규칙을 걸 때의 제약 ①~⑧</text>
<text x="220.0" y="263.0" font-size="12" fill="#232F3E" text-anchor="middle" font-weight="normal">같은 버킷 · 같은 객체</text>
<text x="130.0" y="444.0" font-size="12" fill="#232F3E" text-anchor="middle" font-weight="normal">Replication</text>
<text x="310.0" y="444.0" font-size="12" fill="#232F3E" text-anchor="middle" font-weight="normal">ILM</text>
<text x="640.0" y="270.0" font-size="12" fill="#232F3E" text-anchor="middle" font-weight="normal">replica</text>
<text x="900.0" y="270.0" font-size="12" fill="#232F3E" text-anchor="middle" font-weight="normal">tier (AIStor 전용)</text>
<text x="640.0" y="472.5" font-size="12" fill="#232F3E" text-anchor="middle" font-weight="normal">replica 측 ILM</text>
<text x="640.0" y="487.5" font-size="12" fill="#232F3E" text-anchor="middle" font-weight="normal">(별도 설정)</text>
<rect x="440.0" y="340.5" width="40" height="19" fill="#FFFFFF"/>
<text x="460.0" y="353.6666666666667" font-size="11" fill="#ED7100" text-anchor="middle" font-weight="normal">복제</text>
<rect x="650.0" y="130.5" width="80" height="19" fill="#FFFFFF"/>
<text x="690.0" y="143.66666666666666" font-size="11" fill="#ED7100" text-anchor="middle" font-weight="normal">Transition</text>
<rect x="570.0" y="505.5" width="60" height="19" fill="#FFFFFF"/>
<text x="600.0" y="518.6666666666666" font-size="11" fill="#DD344C" text-anchor="middle" font-weight="normal">resync</text>
<circle cx="770.0" cy="400.0" r="13.0" fill="#DD344C"/>
<text x="770.0" y="403.6666666666667" font-size="11" fill="#FFFFFF" text-anchor="middle" font-weight="bold">1</text>
<circle cx="695.0" cy="430.0" r="13.0" fill="#DD344C"/>
<text x="695.0" y="433.6666666666667" font-size="11" fill="#FFFFFF" text-anchor="middle" font-weight="bold">2</text>
<circle cx="665.0" cy="345.0" r="13.0" fill="#DD344C"/>
<text x="665.0" y="348.6666666666667" font-size="11" fill="#FFFFFF" text-anchor="middle" font-weight="bold">3</text>
<circle cx="590.0" cy="180.0" r="13.0" fill="#DD344C"/>
<text x="590.0" y="183.66666666666666" font-size="11" fill="#FFFFFF" text-anchor="middle" font-weight="bold">4</text>
<circle cx="945.0" cy="180.0" r="13.0" fill="#DD344C"/>
<text x="945.0" y="183.66666666666666" font-size="11" fill="#FFFFFF" text-anchor="middle" font-weight="bold">5</text>
<circle cx="800.0" cy="190.0" r="13.0" fill="#DD344C"/>
<text x="800.0" y="193.66666666666666" font-size="11" fill="#FFFFFF" text-anchor="middle" font-weight="bold">6</text>
<circle cx="345.0" cy="370.0" r="13.0" fill="#DD344C"/>
<text x="345.0" y="373.6666666666667" font-size="11" fill="#FFFFFF" text-anchor="middle" font-weight="bold">7</text>
<circle cx="165.0" cy="370.0" r="13.0" fill="#DD344C"/>
<text x="165.0" y="373.6666666666667" font-size="11" fill="#FFFFFF" text-anchor="middle" font-weight="bold">8</text>
<circle cx="1112.0" cy="150.0" r="13.0" fill="#DD344C"/>
<text x="1112.0" y="153.66666666666666" font-size="11" fill="#FFFFFF" text-anchor="middle" font-weight="bold">1</text>
<text x="1139" y="154.33333333333334" font-size="13" fill="#232F3E" text-anchor="start" font-weight="normal">resync → Tier 연결 영구 단절</text>
<circle cx="1112.0" cy="198.0" r="13.0" fill="#DD344C"/>
<text x="1112.0" y="201.66666666666666" font-size="11" fill="#FFFFFF" text-anchor="middle" font-weight="bold">2</text>
<text x="1139" y="202.33333333333334" font-size="13" fill="#232F3E" text-anchor="start" font-weight="normal">Expiration 삭제 미복제</text>
<circle cx="1112.0" cy="246.0" r="13.0" fill="#DD344C"/>
<text x="1112.0" y="249.66666666666666" font-size="11" fill="#FFFFFF" text-anchor="middle" font-weight="bold">3</text>
<text x="1139" y="250.33333333333334" font-size="13" fill="#232F3E" text-anchor="start" font-weight="normal">ILM 설정 비복제 · 비대칭</text>
<circle cx="1112.0" cy="294.0" r="13.0" fill="#DD344C"/>
<text x="1112.0" y="297.6666666666667" font-size="11" fill="#FFFFFF" text-anchor="middle" font-weight="bold">4</text>
<text x="1139" y="298.3333333333333" font-size="13" fill="#232F3E" text-anchor="start" font-weight="normal">Transition 된 객체 복제 미기재</text>
<circle cx="1112.0" cy="342.0" r="13.0" fill="#DD344C"/>
<text x="1112.0" y="345.6666666666667" font-size="11" fill="#FFFFFF" text-anchor="middle" font-weight="bold">5</text>
<text x="1139" y="346.3333333333333" font-size="13" fill="#232F3E" text-anchor="start" font-weight="normal">Tier = AIStor 독점</text>
<circle cx="1112.0" cy="390.0" r="13.0" fill="#DD344C"/>
<text x="1112.0" y="393.6666666666667" font-size="11" fill="#FFFFFF" text-anchor="middle" font-weight="bold">6</text>
<text x="1139" y="394.3333333333333" font-size="13" fill="#232F3E" text-anchor="start" font-weight="normal">Warm 이중 저장 (용량)</text>
<circle cx="1112.0" cy="438.0" r="13.0" fill="#DD344C"/>
<text x="1112.0" y="441.6666666666667" font-size="11" fill="#FFFFFF" text-anchor="middle" font-weight="bold">7</text>
<text x="1139" y="442.3333333333333" font-size="13" fill="#232F3E" text-anchor="start" font-weight="normal">Scanner 공유 부하</text>
<circle cx="1112.0" cy="486.0" r="13.0" fill="#DD344C"/>
<text x="1112.0" y="489.6666666666667" font-size="11" fill="#FFFFFF" text-anchor="middle" font-weight="bold">8</text>
<text x="1139" y="490.3333333333333" font-size="13" fill="#232F3E" text-anchor="start" font-weight="normal">🚨 동일 버전 필수 (Replication)</text>
</svg>